<svg width="1024" height="1024" xmlns="http://www.w3.org/2000/svg" class="icon">
 <defs>
  <style type="text/css"/>
 </defs>
 <g>
  <title>background</title>
  <rect fill="none" id="canvas_background" height="402" width="582" y="-1" x="-1"/>
 </g>
 <g>
  <title>Layer 1</title>
  <path id="svg_1" fill="#ffb903" d="m447.1,891c-7.3,0 -13.3,-6 -13.3,-13.3l0,-286.1c0,-7.3 6,-13.3 13.3,-13.3l81.1,0c5.1,-31.2 32.2,-55 64.7,-55c32.6,0 59.7,23.9 64.7,55l75.6,0c7.3,0 13.3,6 13.3,13.3l0,286.1c0,7.3 -6,13.3 -13.3,13.3l-286.1,0z"/>
  <path id="svg_3" fill="#ffb903" d="m712.2,591.6l0,266.1l-266.1,0l0,20l286.1,0l0,-286.1l-20,0z"/>
  <path id="svg_4" fill="#03a5f0" d="m138.1,891c-7.3,0 -13.3,-6 -13.3,-13.3l0,-286.1c0,-7.3 6,-13.3 13.3,-13.3l286.1,0c7.3,0 13.3,6 13.3,13.3l0,81.1c31.2,5.1 55,32.2 55,64.7c0,32.6 -23.9,59.7 -55,64.7l0,75.6c0,7.3 -6,13.3 -13.3,13.3l-286.1,0z"/>
  <path id="svg_6" fill="#03a5f0" d="m164.7,611.6l259.4,0l0,-20l-286,0l0,286.1l26.6,0l0,-266.1z"/>
  <path id="svg_7" fill="#f35022" d="m278.3,637.9c-32.6,0 -59.7,-23.9 -64.7,-55l-75.6,0c-7.3,0 -13.3,-6 -13.3,-13.3l0,-286c0,-7.3 6,-13.3 13.3,-13.3l286.1,0c7.3,0 13.3,6 13.3,13.3l0,88.2c0,3.6 -1.5,7.1 -4.1,9.6c-2.5,2.4 -5.8,3.7 -9.2,3.7l-0.6,0c-0.4,0 -0.8,0 -1.2,-0.1l-0.9,0c-24.5,0 -44.5,19.9 -44.5,44.5s19.9,44.5 44.5,44.5l0.9,0c0.4,0 0.8,-0.1 1.3,-0.1l0.6,0c3.4,0 6.7,1.3 9.2,3.7c2.6,2.5 4.1,6 4.1,9.6l0,82.7c0,7.3 -6,13.3 -13.3,13.3l-81.2,0c-5,30.9 -32.1,54.7 -64.7,54.7z"/>
  <path stroke="null" id="svg_9" fill="#f35022" d="m164.7,310.2l259.4,0l0,-26.6l-286,0l0,286l26.6,0l0,-259.4z"/>
  <path id="svg_10" fill="#80bb03" d="m691.4,540.1c-3.4,0 -6.6,-1.3 -9.1,-3.6l-64.3,-60.3c-2.7,-2.5 -4.2,-6 -4.2,-9.6c0,-3.6 1.4,-7.1 4,-9.7c0.3,-0.3 0.6,-0.6 0.9,-0.8l0.6,-0.6c8.1,-8.7 12.4,-20 12,-31.8s-5.4,-22.9 -14,-31c-8.3,-7.8 -19.1,-12 -30.4,-12c-12.4,0 -23.9,5 -32.4,14c-0.2,0.2 -0.4,0.4 -0.6,0.7c-0.3,0.3 -0.5,0.6 -0.8,1c-2.4,2.8 -5.8,4.4 -9.4,4.6l-0.7,0c-3.4,0 -6.6,-1.3 -9.1,-3.6l-60.3,-56.6c-5.4,-5 -5.6,-13.4 -0.6,-18.8l55.5,-59.1c-8.4,-10.8 -13.1,-24 -13.5,-37.9c-0.6,-17.5 5.7,-34.2 17.7,-46.9c12.3,-13.2 29.8,-20.7 47.8,-20.7c13.2,0 25.8,3.9 36.6,11.1l51.7,-55.1c2.6,-2.8 6.2,-4.2 9.7,-4.2c3.3,0 6.5,1.2 9.1,3.6l208.6,195.7c2.6,2.4 4.1,5.8 4.2,9.3c0.1,3.5 -1.2,7 -3.6,9.5l-195.7,208.6c-2.4,2.6 -5.8,4.1 -9.3,4.2l-0.4,0z"/>
  <path id="svg_12" fill="#80bb03" d="m687.6,114.4l-9.2,9.8l191.2,179.3l-186.6,198.9l17.4,16.4l195.8,-208.6l-208.6,-195.8z"/>
  <text stroke="null" transform="matrix(0.5309550934804117,0,0,0.41889554333712903,255.54884257993774,280.561198498156) " xml:space="preserve" text-anchor="start" font-family="Helvetica, Arial, sans-serif" font-size="24" id="svg_14" y="687.546565" x="387.580011" stroke-opacity="null" stroke-width="0" fill="#000000">OLDLI</text>
 </g>
</svg>