<svg id="Layer_1" data-name="Layer 1" xmlns="http://www.w3.org/2000/svg" xmlns:xlink="http://www.w3.org/1999/xlink" viewBox="0 0 1920 1080"><defs><linearGradient id="linear-gradient" y1="213.793" x2="646.62" y2="213.793" gradientUnits="userSpaceOnUse"><stop offset="0" stop-color="#8bd1cc"/><stop offset="1" stop-color="#1ab2d3"/></linearGradient><linearGradient id="linear-gradient-2" y1="930.586" x2="369" y2="930.586" gradientUnits="userSpaceOnUse"><stop offset="0" stop-color="#a5a4d2"/><stop offset="1" stop-color="#8080bd"/></linearGradient><linearGradient id="linear-gradient-3" x1="1673.69" y1="122.65" x2="1920" y2="122.65" gradientUnits="userSpaceOnUse"><stop offset="0" stop-color="#d8ebd1"/><stop offset="1" stop-color="#a9d7a8"/></linearGradient><linearGradient id="linear-gradient-4" x1="1164.7" y1="845.87" x2="1920" y2="845.87" gradientUnits="userSpaceOnUse"><stop offset="0" stop-color="#f7c5c6"/><stop offset="1" stop-color="#f7a3a4"/></linearGradient></defs><title>sign-bg</title><path d="M646.62,0c-4.142,52.9-123.975,183.356-275.4,148.5-62.451-14.374-128.2,6.615-168.425,56.5-23.2,28.771-36.426,64.359-24.489,103.638C220.01,445.87,73.61,433.46,0,419.32V0Z" style="fill:url(#linear-gradient)"/><path d="M589.03,1080H0V631.28c133.94-93.56,331.22-113.36,528.74,293.08C557.08,982.67,576.77,1034.32,589.03,1080Z" style="fill:#fff"/><path d="M1571.25,0c-15.62,76.14-72.34,160.76-196.55,250.7-36.18,26.19-78.07,52.83-126.35,79.85-49.81,27.88-94.85,48.76-135.55,63.5C782.77,513.65,738.45,229.74,751.62,0Z" style="fill:#fff"/><circle cx="1257.57" cy="347.589" r="152.01" style="fill:#fcfdfe"/><path d="M369,1080H0V851S345,589,369,1080Z" style="fill:url(#linear-gradient-2)"/><path d="M1920,0V245.3c-29.8-1.28-65.52-7.53-108.26-20.17C1622.35,169.1,1661.58,72.85,1731.07,0Z" style="fill:url(#linear-gradient-3)"/><path d="M1920,620.57V1080H1164.7C1189.96,940.06,1385,959,1385,959s266,28,328-202C1756.04,597.35,1860.27,602.48,1920,620.57Z" style="fill:url(#linear-gradient-4)"/></svg>